<?xml version="1.0" standalone="no"?><svg xmlns:xlink="http://www.w3.org/1999/xlink" xmlns="http://www.w3.org/2000/svg" viewBox="0 0 1000 714.2834536553827" preserveAspectRatio="xMaxYMax slice"><g transform="scale(1.1303151657776738)"><rect x="0" y="0" width="884.7188" height="631.942" fill="#f0f0f0"/><rect x="126.3884" y="0" width="63.1942" height="63.1942" fill="#f0f0f0"/><path d="M 126.39 0 A 31.6 31.6 0 0 1  157.99 31.6 L 126.39 0 A 31.6 31.6 0 0 0 157.99 31.6" fill="#de5fd2"/><path d="M 157.99 31.6 A 31.6 31.6 0 0 1  189.59 0 L 157.99 31.6 A 31.6 31.6 0 0 0 189.59 0" fill="#0bd01f"/><path d="M 157.99 63.2 A 31.6 31.6 0 0 1  189.59 31.6 L 157.99 63.2 A 31.6 31.6 0 0 0 189.59 31.6" fill="#3dd74d"/><g transform="translate(252.78,0) scale(3.1595) rotate(0)"><path fill-rule="evenodd" clip-rule="evenodd" d="M10 20C15.5228 20 20 15.5228 20 10C20 4.47715 15.5228 0 10 0C4.47715 0 0 4.47715 0 10C0 15.5228 4.47715 20 10 20ZM10 17C13.866 17 17 13.866 17 10C17 6.13401 13.866 3 10 3C6.13401 3 3 6.13401 3 10C3 13.866 6.13401 17 10 17Z" fill="#bfe9c3"/></g><rect x="379.1652" y="0" width="63.1942" height="63.1942" fill="#f0f0f0"/><path d="M 379.17 0 A 31.6 31.6 0 0 1  410.77000000000004 31.6 L 379.17 0 A 31.6 31.6 0 0 0 410.77000000000004 31.6" fill="#edd6eb"/><g transform="translate(410.76,0) scale(1.58) rotate(0)"><path fill-rule="evenodd" clip-rule="evenodd" d="M10 20C15.5228 20 20 15.5228 20 10C20 4.47715 15.5228 0 10 0C4.47715 0 0 4.47715 0 10C0 15.5228 4.47715 20 10 20ZM10 17C13.866 17 17 13.866 17 10C17 6.13401 13.866 3 10 3C6.13401 3 3 6.13401 3 10C3 13.866 6.13401 17 10 17Z" fill="#1ad22d"/></g><path d="M 379.17 63.2 A 31.6 31.6 0 0 1  410.77000000000004 31.6 L 379.17 63.2 A 31.6 31.6 0 0 0 410.77000000000004 31.6" fill="#ebc4e7"/><path d="M 410.76 63.2 A 31.6 31.6 0 0 1  442.36 31.6 L 410.76 63.2 A 31.6 31.6 0 0 0 442.36 31.6" fill="#eee2ed"/><rect x="568.7478" y="0" width="63.1942" height="63.1942" fill="#f0f0f0"/><path d="M 568.75 0 A 31.6 31.6 0 0 1  600.35 31.6 L 568.75 0 A 31.6 31.6 0 0 0 600.35 31.6" fill="#e597dd"/><path d="M 600.34 31.6 A 31.6 31.6 0 0 1  631.94 0 L 600.34 31.6 A 31.6 31.6 0 0 0 631.94 0" fill="#d0ecd3"/><path d="M 568.75 63.2 A 31.6 31.6 0 0 1  600.35 31.6 L 568.75 63.2 A 31.6 31.6 0 0 0 600.35 31.6" fill="#d5ecd7"/><g transform="translate(600.34,31.6) scale(1.58) rotate(0)"><path fill-rule="evenodd" clip-rule="evenodd" d="M10 20C15.5228 20 20 15.5228 20 10C20 4.47715 15.5228 0 10 0C4.47715 0 0 4.47715 0 10C0 15.5228 4.47715 20 10 20ZM10 17C13.866 17 17 13.866 17 10C17 6.13401 13.866 3 10 3C6.13401 3 3 6.13401 3 10C3 13.866 6.13401 17 10 17Z" fill="#03cf18"/></g><g transform="translate(631.94,0) scale(3.1595) rotate(0)"><path fill-rule="evenodd" clip-rule="evenodd" d="M10 20C15.5228 20 20 15.5228 20 10C20 4.47715 15.5228 0 10 0C4.47715 0 0 4.47715 0 10C0 15.5228 4.47715 20 10 20ZM10 17C13.866 17 17 13.866 17 10C17 6.13401 13.866 3 10 3C6.13401 3 3 6.13401 3 10C3 13.866 6.13401 17 10 17Z" fill="#ecd1ea"/></g><rect x="695.1362" y="0" width="63.1942" height="63.1942" fill="#f0f0f0"/><path d="M 695.14 31.6 A 31.6 31.6 0 0 1  726.74 0 L 695.14 31.6 A 31.6 31.6 0 0 0 726.74 0" fill="#3bd74b"/><g transform="translate(726.73,0) scale(1.58) rotate(0)"><path fill-rule="evenodd" clip-rule="evenodd" d="M10 20C15.5228 20 20 15.5228 20 10C20 4.47715 15.5228 0 10 0C4.47715 0 0 4.47715 0 10C0 15.5228 4.47715 20 10 20ZM10 17C13.866 17 17 13.866 17 10C17 6.13401 13.866 3 10 3C6.13401 3 3 6.13401 3 10C3 13.866 6.13401 17 10 17Z" fill="#d1ecd4"/></g><path d="M 726.73 31.6 A 31.6 31.6 0 0 1  758.33 63.2 L 726.73 31.6 A 31.6 31.6 0 0 0 758.33 63.2" fill="#e7aae1"/><g transform="translate(758.33,0) scale(3.1595) rotate(0)"><path fill-rule="evenodd" clip-rule="evenodd" d="M10 20C15.5228 20 20 15.5228 20 10C20 4.47715 15.5228 0 10 0C4.47715 0 0 4.47715 0 10C0 15.5228 4.47715 20 10 20ZM10 17C13.866 17 17 13.866 17 10C17 6.13401 13.866 3 10 3C6.13401 3 3 6.13401 3 10C3 13.866 6.13401 17 10 17Z" fill="#e9efea"/></g><g transform="translate(126.39,63.19) scale(3.1595) rotate(0)"><path fill-rule="evenodd" clip-rule="evenodd" d="M10 20C15.5228 20 20 15.5228 20 10C20 4.47715 15.5228 0 10 0C4.47715 0 0 4.47715 0 10C0 15.5228 4.47715 20 10 20ZM10 17C13.866 17 17 13.866 17 10C17 6.13401 13.866 3 10 3C6.13401 3 3 6.13401 3 10C3 13.866 6.13401 17 10 17Z" fill="#da3dca"/></g><g transform="translate(189.58,63.19) scale(3.1595) rotate(0)"><path fill-rule="evenodd" clip-rule="evenodd" d="M10 20C15.5228 20 20 15.5228 20 10C20 4.47715 15.5228 0 10 0C4.47715 0 0 4.47715 0 10C0 15.5228 4.47715 20 10 20ZM10 17C13.866 17 17 13.866 17 10C17 6.13401 13.866 3 10 3C6.13401 3 3 6.13401 3 10C3 13.866 6.13401 17 10 17Z" fill="#d7edd9"/></g><path d="M 252.78 63.19 A 63.19 63.19 0 0 1  315.97 126.38 L 252.78 63.19 A 63.19 63.19 0 0 0 315.97 126.38" fill="#eedeec"/><path d="M 315.97 126.38 A 63.19 63.19 0 0 1  379.16 63.19 L 315.97 126.38 A 63.19 63.19 0 0 0 379.16 63.19" fill="#db40cb"/><g transform="translate(379.17,63.19) scale(3.1595) rotate(0)"><path fill-rule="evenodd" clip-rule="evenodd" d="M10 20C15.5228 20 20 15.5228 20 10C20 4.47715 15.5228 0 10 0C4.47715 0 0 4.47715 0 10C0 15.5228 4.47715 20 10 20ZM10 17C13.866 17 17 13.866 17 10C17 6.13401 13.866 3 10 3C6.13401 3 3 6.13401 3 10C3 13.866 6.13401 17 10 17Z" fill="#daeddc"/></g><g transform="translate(442.36,63.19) scale(3.1595) rotate(0)"><path fill-rule="evenodd" clip-rule="evenodd" d="M10 20C15.5228 20 20 15.5228 20 10C20 4.47715 15.5228 0 10 0C4.47715 0 0 4.47715 0 10C0 15.5228 4.47715 20 10 20ZM10 17C13.866 17 17 13.866 17 10C17 6.13401 13.866 3 10 3C6.13401 3 3 6.13401 3 10C3 13.866 6.13401 17 10 17Z" fill="#efe7ee"/></g><path d="M 505.55 126.38 A 63.19 63.19 0 0 1  568.74 63.19 L 505.55 126.38 A 63.19 63.19 0 0 0 568.74 63.19" fill="#deeddf"/><rect x="568.7478" y="63.1942" width="63.1942" height="63.1942" fill="#f0f0f0"/><path d="M 631.94 63.19 A 63.19 63.19 0 0 1  695.1300000000001 126.38 L 631.94 63.19 A 63.19 63.19 0 0 0 695.1300000000001 126.38" fill="#07d01c"/><rect x="695.1362" y="63.1942" width="63.1942" height="63.1942" fill="#f0f0f0"/><g transform="translate(695.14,63.19) scale(1.58) rotate(0)"><path fill-rule="evenodd" clip-rule="evenodd" d="M10 20C15.5228 20 20 15.5228 20 10C20 4.47715 15.5228 0 10 0C4.47715 0 0 4.47715 0 10C0 15.5228 4.47715 20 10 20ZM10 17C13.866 17 17 13.866 17 10C17 6.13401 13.866 3 10 3C6.13401 3 3 6.13401 3 10C3 13.866 6.13401 17 10 17Z" fill="#d82bc7"/></g><path d="M 726.73 94.78999999999999 A 31.6 31.6 0 0 1  758.33 63.19 L 726.73 94.78999999999999 A 31.6 31.6 0 0 0 758.33 63.19" fill="#0fd123"/><path d="M 726.73 94.79 A 31.6 31.6 0 0 1  758.33 126.39000000000001 L 726.73 94.79 A 31.6 31.6 0 0 0 758.33 126.39000000000001" fill="#eee2ed"/><g transform="translate(758.33,63.19) scale(3.1595) rotate(0)"><path fill-rule="evenodd" clip-rule="evenodd" d="M10 20C15.5228 20 20 15.5228 20 10C20 4.47715 15.5228 0 10 0C4.47715 0 0 4.47715 0 10C0 15.5228 4.47715 20 10 20ZM10 17C13.866 17 17 13.866 17 10C17 6.13401 13.866 3 10 3C6.13401 3 3 6.13401 3 10C3 13.866 6.13401 17 10 17Z" fill="#e385da"/></g><rect x="821.5246000000001" y="63.1942" width="63.1942" height="63.1942" fill="#f0f0f0"/><path d="M 821.52 63.19 A 31.6 31.6 0 0 1  853.12 94.78999999999999 L 821.52 63.19 A 31.6 31.6 0 0 0 853.12 94.78999999999999" fill="#65dd71"/><g transform="translate(821.52,94.79) scale(1.58) rotate(0)"><path fill-rule="evenodd" clip-rule="evenodd" d="M10 20C15.5228 20 20 15.5228 20 10C20 4.47715 15.5228 0 10 0C4.47715 0 0 4.47715 0 10C0 15.5228 4.47715 20 10 20ZM10 17C13.866 17 17 13.866 17 10C17 6.13401 13.866 3 10 3C6.13401 3 3 6.13401 3 10C3 13.866 6.13401 17 10 17Z" fill="#e7a9e1"/></g><path d="M 853.12 126.39000000000001 A 31.6 31.6 0 0 1  884.72 94.79 L 853.12 126.39000000000001 A 31.6 31.6 0 0 0 884.72 94.79" fill="#f0ecef"/><rect x="0" y="126.3884" width="63.1942" height="63.1942" fill="#f0f0f0"/><path d="M 0 126.39 A 31.6 31.6 0 0 1  31.6 157.99 L 0 126.39 A 31.6 31.6 0 0 0 31.6 157.99" fill="#e8aee2"/><path d="M 0 189.59 A 31.6 31.6 0 0 1  31.6 157.99 L 0 189.59 A 31.6 31.6 0 0 0 31.6 157.99" fill="#35d646"/><path d="M 31.6 189.59 A 31.6 31.6 0 0 1  63.2 157.99 L 31.6 189.59 A 31.6 31.6 0 0 0 63.2 157.99" fill="#e27cd8"/><path d="M 63.19 126.39 A 63.19 63.19 0 0 1  126.38 189.57999999999998 L 63.19 126.39 A 63.19 63.19 0 0 0 126.38 189.57999999999998" fill="#d935c9"/><g transform="translate(189.58,126.39) scale(3.1595) rotate(0)"><path fill-rule="evenodd" clip-rule="evenodd" d="M10 20C15.5228 20 20 15.5228 20 10C20 4.47715 15.5228 0 10 0C4.47715 0 0 4.47715 0 10C0 15.5228 4.47715 20 10 20ZM10 17C13.866 17 17 13.866 17 10C17 6.13401 13.866 3 10 3C6.13401 3 3 6.13401 3 10C3 13.866 6.13401 17 10 17Z" fill="#15d228"/></g><rect x="252.7768" y="126.3884" width="63.1942" height="63.1942" fill="#f0f0f0"/><path d="M 284.37 157.99 A 31.6 31.6 0 0 1  315.97 126.39 L 284.37 157.99 A 31.6 31.6 0 0 0 315.97 126.39" fill="#d937c9"/><g transform="translate(284.37,157.99) scale(1.58) rotate(0)"><path fill-rule="evenodd" clip-rule="evenodd" d="M10 20C15.5228 20 20 15.5228 20 10C20 4.47715 15.5228 0 10 0C4.47715 0 0 4.47715 0 10C0 15.5228 4.47715 20 10 20ZM10 17C13.866 17 17 13.866 17 10C17 6.13401 13.866 3 10 3C6.13401 3 3 6.13401 3 10C3 13.866 6.13401 17 10 17Z" fill="#20d332"/></g><path d="M 379.17 126.39 A 63.19 63.19 0 0 1  442.36 189.57999999999998 L 379.17 126.39 A 63.19 63.19 0 0 0 442.36 189.57999999999998" fill="#e7a3e0"/><rect x="442.3594" y="126.3884" width="63.1942" height="63.1942" fill="#f0f0f0"/><g transform="translate(442.36,126.39) scale(1.58) rotate(0)"><path fill-rule="evenodd" clip-rule="evenodd" d="M10 20C15.5228 20 20 15.5228 20 10C20 4.47715 15.5228 0 10 0C4.47715 0 0 4.47715 0 10C0 15.5228 4.47715 20 10 20ZM10 17C13.866 17 17 13.866 17 10C17 6.13401 13.866 3 10 3C6.13401 3 3 6.13401 3 10C3 13.866 6.13401 17 10 17Z" fill="#9fe5a6"/></g><path d="M 473.96 126.39 A 31.6 31.6 0 0 1  505.56 157.99 L 473.96 126.39 A 31.6 31.6 0 0 0 505.56 157.99" fill="#93e39b"/><path d="M 473.96 189.59 A 31.6 31.6 0 0 1  505.56 157.99 L 473.96 189.59 A 31.6 31.6 0 0 0 505.56 157.99" fill="#58db65"/><g transform="translate(505.55,126.39) scale(3.1595) rotate(0)"><path fill-rule="evenodd" clip-rule="evenodd" d="M10 20C15.5228 20 20 15.5228 20 10C20 4.47715 15.5228 0 10 0C4.47715 0 0 4.47715 0 10C0 15.5228 4.47715 20 10 20ZM10 17C13.866 17 17 13.866 17 10C17 6.13401 13.866 3 10 3C6.13401 3 3 6.13401 3 10C3 13.866 6.13401 17 10 17Z" fill="#33d644"/></g><rect x="631.942" y="126.3884" width="63.1942" height="63.1942" fill="#f0f0f0"/><g transform="translate(631.94,126.39) scale(1.58) rotate(0)"><path fill-rule="evenodd" clip-rule="evenodd" d="M10 20C15.5228 20 20 15.5228 20 10C20 4.47715 15.5228 0 10 0C4.47715 0 0 4.47715 0 10C0 15.5228 4.47715 20 10 20ZM10 17C13.866 17 17 13.866 17 10C17 6.13401 13.866 3 10 3C6.13401 3 3 6.13401 3 10C3 13.866 6.13401 17 10 17Z" fill="#50da5e"/></g><g transform="translate(663.54,126.39) scale(1.58) rotate(0)"><path fill-rule="evenodd" clip-rule="evenodd" d="M10 20C15.5228 20 20 15.5228 20 10C20 4.47715 15.5228 0 10 0C4.47715 0 0 4.47715 0 10C0 15.5228 4.47715 20 10 20ZM10 17C13.866 17 17 13.866 17 10C17 6.13401 13.866 3 10 3C6.13401 3 3 6.13401 3 10C3 13.866 6.13401 17 10 17Z" fill="#edd9eb"/></g><path d="M 631.94 189.59 A 31.6 31.6 0 0 1  663.5400000000001 157.99 L 631.94 189.59 A 31.6 31.6 0 0 0 663.5400000000001 157.99" fill="#db41cb"/><path d="M 663.54 157.99 A 31.6 31.6 0 0 1  695.14 189.59 L 663.54 157.99 A 31.6 31.6 0 0 0 695.14 189.59" fill="#d935c9"/><path d="M 695.14 189.57999999999998 A 63.19 63.19 0 0 1  758.3299999999999 126.39 L 695.14 189.57999999999998 A 63.19 63.19 0 0 0 758.3299999999999 126.39" fill="#df64d3"/><rect x="758.3304" y="126.3884" width="63.1942" height="63.1942" fill="#f0f0f0"/><path d="M 758.33 126.39 A 31.6 31.6 0 0 1  789.9300000000001 157.99 L 758.33 126.39 A 31.6 31.6 0 0 0 789.9300000000001 157.99" fill="#ecd2ea"/><g transform="translate(789.93,126.39) scale(1.58) rotate(0)"><path fill-rule="evenodd" clip-rule="evenodd" d="M10 20C15.5228 20 20 15.5228 20 10C20 4.47715 15.5228 0 10 0C4.47715 0 0 4.47715 0 10C0 15.5228 4.47715 20 10 20ZM10 17C13.866 17 17 13.866 17 10C17 6.13401 13.866 3 10 3C6.13401 3 3 6.13401 3 10C3 13.866 6.13401 17 10 17Z" fill="#e178d7"/></g><g transform="translate(758.33,157.99) scale(1.58) rotate(0)"><path fill-rule="evenodd" clip-rule="evenodd" d="M10 20C15.5228 20 20 15.5228 20 10C20 4.47715 15.5228 0 10 0C4.47715 0 0 4.47715 0 10C0 15.5228 4.47715 20 10 20ZM10 17C13.866 17 17 13.866 17 10C17 6.13401 13.866 3 10 3C6.13401 3 3 6.13401 3 10C3 13.866 6.13401 17 10 17Z" fill="#9be4a3"/></g><g transform="translate(63.19,189.58) scale(3.1595) rotate(0)"><path fill-rule="evenodd" clip-rule="evenodd" d="M10 20C15.5228 20 20 15.5228 20 10C20 4.47715 15.5228 0 10 0C4.47715 0 0 4.47715 0 10C0 15.5228 4.47715 20 10 20ZM10 17C13.866 17 17 13.866 17 10C17 6.13401 13.866 3 10 3C6.13401 3 3 6.13401 3 10C3 13.866 6.13401 17 10 17Z" fill="#38d748"/></g><path d="M 126.39 189.58 A 63.19 63.19 0 0 1  189.57999999999998 252.77 L 126.39 189.58 A 63.19 63.19 0 0 0 189.57999999999998 252.77" fill="#34d644"/><g transform="translate(189.58,189.58) scale(3.1595) rotate(0)"><path fill-rule="evenodd" clip-rule="evenodd" d="M10 20C15.5228 20 20 15.5228 20 10C20 4.47715 15.5228 0 10 0C4.47715 0 0 4.47715 0 10C0 15.5228 4.47715 20 10 20ZM10 17C13.866 17 17 13.866 17 10C17 6.13401 13.866 3 10 3C6.13401 3 3 6.13401 3 10C3 13.866 6.13401 17 10 17Z" fill="#1ad22d"/></g><rect x="252.7768" y="189.5826" width="63.1942" height="63.1942" fill="#f0f0f0"/><g transform="translate(252.78,189.58) scale(1.58) rotate(0)"><path fill-rule="evenodd" clip-rule="evenodd" d="M10 20C15.5228 20 20 15.5228 20 10C20 4.47715 15.5228 0 10 0C4.47715 0 0 4.47715 0 10C0 15.5228 4.47715 20 10 20ZM10 17C13.866 17 17 13.866 17 10C17 6.13401 13.866 3 10 3C6.13401 3 3 6.13401 3 10C3 13.866 6.13401 17 10 17Z" fill="#e2eee3"/></g><g transform="translate(252.78,221.18) scale(1.58) rotate(0)"><path fill-rule="evenodd" clip-rule="evenodd" d="M10 20C15.5228 20 20 15.5228 20 10C20 4.47715 15.5228 0 10 0C4.47715 0 0 4.47715 0 10C0 15.5228 4.47715 20 10 20ZM10 17C13.866 17 17 13.866 17 10C17 6.13401 13.866 3 10 3C6.13401 3 3 6.13401 3 10C3 13.866 6.13401 17 10 17Z" fill="#e06dd4"/></g><g transform="translate(315.97,189.58) scale(3.1595) rotate(0)"><path fill-rule="evenodd" clip-rule="evenodd" d="M10 20C15.5228 20 20 15.5228 20 10C20 4.47715 15.5228 0 10 0C4.47715 0 0 4.47715 0 10C0 15.5228 4.47715 20 10 20ZM10 17C13.866 17 17 13.866 17 10C17 6.13401 13.866 3 10 3C6.13401 3 3 6.13401 3 10C3 13.866 6.13401 17 10 17Z" fill="#a0e5a7"/></g><rect x="379.1652" y="189.5826" width="63.1942" height="63.1942" fill="#f0f0f0"/><path d="M 379.17 221.18 A 31.6 31.6 0 0 1  410.77000000000004 189.58 L 379.17 221.18 A 31.6 31.6 0 0 0 410.77000000000004 189.58" fill="#eee1ed"/><path d="M 379.17 221.18 A 31.6 31.6 0 0 1  410.77000000000004 252.78 L 379.17 221.18 A 31.6 31.6 0 0 0 410.77000000000004 252.78" fill="#b4e8ba"/><path d="M 410.76 221.18 A 31.6 31.6 0 0 1  442.36 252.78 L 410.76 221.18 A 31.6 31.6 0 0 0 442.36 252.78" fill="#e7a9e1"/><g transform="translate(631.94,189.58) scale(3.1595) rotate(0)"><path fill-rule="evenodd" clip-rule="evenodd" d="M10 20C15.5228 20 20 15.5228 20 10C20 4.47715 15.5228 0 10 0C4.47715 0 0 4.47715 0 10C0 15.5228 4.47715 20 10 20ZM10 17C13.866 17 17 13.866 17 10C17 6.13401 13.866 3 10 3C6.13401 3 3 6.13401 3 10C3 13.866 6.13401 17 10 17Z" fill="#e8b1e3"/></g><path d="M 695.14 252.77 A 63.19 63.19 0 0 1  758.3299999999999 189.58 L 695.14 252.77 A 63.19 63.19 0 0 0 758.3299999999999 189.58" fill="#d0ecd3"/><rect x="758.3304" y="189.5826" width="63.1942" height="63.1942" fill="#f0f0f0"/><g transform="translate(789.93,189.58) scale(1.58) rotate(0)"><path fill-rule="evenodd" clip-rule="evenodd" d="M10 20C15.5228 20 20 15.5228 20 10C20 4.47715 15.5228 0 10 0C4.47715 0 0 4.47715 0 10C0 15.5228 4.47715 20 10 20ZM10 17C13.866 17 17 13.866 17 10C17 6.13401 13.866 3 10 3C6.13401 3 3 6.13401 3 10C3 13.866 6.13401 17 10 17Z" fill="#f0edef"/></g><g transform="translate(758.33,221.18) scale(1.58) rotate(0)"><path fill-rule="evenodd" clip-rule="evenodd" d="M10 20C15.5228 20 20 15.5228 20 10C20 4.47715 15.5228 0 10 0C4.47715 0 0 4.47715 0 10C0 15.5228 4.47715 20 10 20ZM10 17C13.866 17 17 13.866 17 10C17 6.13401 13.866 3 10 3C6.13401 3 3 6.13401 3 10C3 13.866 6.13401 17 10 17Z" fill="#6bde77"/></g><g transform="translate(789.93,221.18) scale(1.58) rotate(0)"><path fill-rule="evenodd" clip-rule="evenodd" d="M10 20C15.5228 20 20 15.5228 20 10C20 4.47715 15.5228 0 10 0C4.47715 0 0 4.47715 0 10C0 15.5228 4.47715 20 10 20ZM10 17C13.866 17 17 13.866 17 10C17 6.13401 13.866 3 10 3C6.13401 3 3 6.13401 3 10C3 13.866 6.13401 17 10 17Z" fill="#e383d9"/></g><g transform="translate(821.52,189.58) scale(3.1595) rotate(0)"><path fill-rule="evenodd" clip-rule="evenodd" d="M10 20C15.5228 20 20 15.5228 20 10C20 4.47715 15.5228 0 10 0C4.47715 0 0 4.47715 0 10C0 15.5228 4.47715 20 10 20ZM10 17C13.866 17 17 13.866 17 10C17 6.13401 13.866 3 10 3C6.13401 3 3 6.13401 3 10C3 13.866 6.13401 17 10 17Z" fill="#2fd540"/></g><path d="M 0 315.97 A 63.19 63.19 0 0 1  63.19 252.78 L 0 315.97 A 63.19 63.19 0 0 0 63.19 252.78" fill="#77df81"/><path d="M 189.58 252.78 A 63.19 63.19 0 0 1  252.77 315.97 L 189.58 252.78 A 63.19 63.19 0 0 0 252.77 315.97" fill="#e27ad7"/><g transform="translate(252.78,252.78) scale(3.1595) rotate(0)"><path fill-rule="evenodd" clip-rule="evenodd" d="M10 20C15.5228 20 20 15.5228 20 10C20 4.47715 15.5228 0 10 0C4.47715 0 0 4.47715 0 10C0 15.5228 4.47715 20 10 20ZM10 17C13.866 17 17 13.866 17 10C17 6.13401 13.866 3 10 3C6.13401 3 3 6.13401 3 10C3 13.866 6.13401 17 10 17Z" fill="#e382d9"/></g><rect x="315.971" y="252.7768" width="63.1942" height="63.1942" fill="#f0f0f0"/><path d="M 315.97 284.37 A 31.6 31.6 0 0 1  347.57000000000005 315.97 L 315.97 284.37 A 31.6 31.6 0 0 0 347.57000000000005 315.97" fill="#6dde79"/><g transform="translate(505.55,252.78) scale(3.1595) rotate(0)"><path fill-rule="evenodd" clip-rule="evenodd" d="M10 20C15.5228 20 20 15.5228 20 10C20 4.47715 15.5228 0 10 0C4.47715 0 0 4.47715 0 10C0 15.5228 4.47715 20 10 20ZM10 17C13.866 17 17 13.866 17 10C17 6.13401 13.866 3 10 3C6.13401 3 3 6.13401 3 10C3 13.866 6.13401 17 10 17Z" fill="#eaefea"/></g><path d="M 568.75 315.97 A 63.19 63.19 0 0 1  631.94 252.78 L 568.75 315.97 A 63.19 63.19 0 0 0 631.94 252.78" fill="#89e292"/><rect x="631.942" y="252.7768" width="63.1942" height="63.1942" fill="#f0f0f0"/><path d="M 631.94 252.78 A 31.6 31.6 0 0 1  663.5400000000001 284.38 L 631.94 252.78 A 31.6 31.6 0 0 0 663.5400000000001 284.38" fill="#0dd121"/><path d="M 631.94 315.97 A 31.6 31.6 0 0 1  663.5400000000001 284.37 L 631.94 315.97 A 31.6 31.6 0 0 0 663.5400000000001 284.37" fill="#e69ddf"/><path d="M 663.54 315.97 A 31.6 31.6 0 0 1  695.14 284.37 L 663.54 315.97 A 31.6 31.6 0 0 0 695.14 284.37" fill="#dd54cf"/><rect x="695.1362" y="252.7768" width="63.1942" height="63.1942" fill="#f0f0f0"/><g transform="translate(695.14,284.37) scale(1.58) rotate(0)"><path fill-rule="evenodd" clip-rule="evenodd" d="M10 20C15.5228 20 20 15.5228 20 10C20 4.47715 15.5228 0 10 0C4.47715 0 0 4.47715 0 10C0 15.5228 4.47715 20 10 20ZM10 17C13.866 17 17 13.866 17 10C17 6.13401 13.866 3 10 3C6.13401 3 3 6.13401 3 10C3 13.866 6.13401 17 10 17Z" fill="#e9bae5"/></g><path d="M 726.73 315.97 A 31.6 31.6 0 0 1  758.33 284.37 L 726.73 315.97 A 31.6 31.6 0 0 0 758.33 284.37" fill="#e8ace2"/><g transform="translate(821.52,252.78) scale(3.1595) rotate(0)"><path fill-rule="evenodd" clip-rule="evenodd" d="M10 20C15.5228 20 20 15.5228 20 10C20 4.47715 15.5228 0 10 0C4.47715 0 0 4.47715 0 10C0 15.5228 4.47715 20 10 20ZM10 17C13.866 17 17 13.866 17 10C17 6.13401 13.866 3 10 3C6.13401 3 3 6.13401 3 10C3 13.866 6.13401 17 10 17Z" fill="#90e398"/></g><g transform="translate(0,315.97) scale(3.1595) rotate(0)"><path fill-rule="evenodd" clip-rule="evenodd" d="M10 20C15.5228 20 20 15.5228 20 10C20 4.47715 15.5228 0 10 0C4.47715 0 0 4.47715 0 10C0 15.5228 4.47715 20 10 20ZM10 17C13.866 17 17 13.866 17 10C17 6.13401 13.866 3 10 3C6.13401 3 3 6.13401 3 10C3 13.866 6.13401 17 10 17Z" fill="#df68d4"/></g><g transform="translate(63.19,315.97) scale(3.1595) rotate(0)"><path fill-rule="evenodd" clip-rule="evenodd" d="M10 20C15.5228 20 20 15.5228 20 10C20 4.47715 15.5228 0 10 0C4.47715 0 0 4.47715 0 10C0 15.5228 4.47715 20 10 20ZM10 17C13.866 17 17 13.866 17 10C17 6.13401 13.866 3 10 3C6.13401 3 3 6.13401 3 10C3 13.866 6.13401 17 10 17Z" fill="#45d854"/></g><path d="M 126.39 379.16 A 63.19 63.19 0 0 1  189.57999999999998 315.97 L 126.39 379.16 A 63.19 63.19 0 0 0 189.57999999999998 315.97" fill="#dc49cd"/><path d="M 252.78 379.16 A 63.19 63.19 0 0 1  315.97 315.97 L 252.78 379.16 A 63.19 63.19 0 0 0 315.97 315.97" fill="#e7a5e0"/><g transform="translate(379.17,315.97) scale(3.1595) rotate(0)"><path fill-rule="evenodd" clip-rule="evenodd" d="M10 20C15.5228 20 20 15.5228 20 10C20 4.47715 15.5228 0 10 0C4.47715 0 0 4.47715 0 10C0 15.5228 4.47715 20 10 20ZM10 17C13.866 17 17 13.866 17 10C17 6.13401 13.866 3 10 3C6.13401 3 3 6.13401 3 10C3 13.866 6.13401 17 10 17Z" fill="#e280d9"/></g><path d="M 442.36 315.97 A 63.19 63.19 0 0 1  505.55 379.16 L 442.36 315.97 A 63.19 63.19 0 0 0 505.55 379.16" fill="#5ddc6a"/><g transform="translate(505.55,315.97) scale(3.1595) rotate(0)"><path fill-rule="evenodd" clip-rule="evenodd" d="M10 20C15.5228 20 20 15.5228 20 10C20 4.47715 15.5228 0 10 0C4.47715 0 0 4.47715 0 10C0 15.5228 4.47715 20 10 20ZM10 17C13.866 17 17 13.866 17 10C17 6.13401 13.866 3 10 3C6.13401 3 3 6.13401 3 10C3 13.866 6.13401 17 10 17Z" fill="#e48adb"/></g><path d="M 568.75 379.16 A 63.19 63.19 0 0 1  631.94 315.97 L 568.75 379.16 A 63.19 63.19 0 0 0 631.94 315.97" fill="#7de087"/><rect x="631.942" y="315.971" width="63.1942" height="63.1942" fill="#f0f0f0"/><g transform="translate(631.94,315.97) scale(1.58) rotate(0)"><path fill-rule="evenodd" clip-rule="evenodd" d="M10 20C15.5228 20 20 15.5228 20 10C20 4.47715 15.5228 0 10 0C4.47715 0 0 4.47715 0 10C0 15.5228 4.47715 20 10 20ZM10 17C13.866 17 17 13.866 17 10C17 6.13401 13.866 3 10 3C6.13401 3 3 6.13401 3 10C3 13.866 6.13401 17 10 17Z" fill="#efe6ee"/></g><g transform="translate(663.54,315.97) scale(1.58) rotate(0)"><path fill-rule="evenodd" clip-rule="evenodd" d="M10 20C15.5228 20 20 15.5228 20 10C20 4.47715 15.5228 0 10 0C4.47715 0 0 4.47715 0 10C0 15.5228 4.47715 20 10 20ZM10 17C13.866 17 17 13.866 17 10C17 6.13401 13.866 3 10 3C6.13401 3 3 6.13401 3 10C3 13.866 6.13401 17 10 17Z" fill="#edd8eb"/></g><rect x="758.3304" y="315.971" width="63.1942" height="63.1942" fill="#f0f0f0"/><g transform="translate(789.93,315.97) scale(1.58) rotate(0)"><path fill-rule="evenodd" clip-rule="evenodd" d="M10 20C15.5228 20 20 15.5228 20 10C20 4.47715 15.5228 0 10 0C4.47715 0 0 4.47715 0 10C0 15.5228 4.47715 20 10 20ZM10 17C13.866 17 17 13.866 17 10C17 6.13401 13.866 3 10 3C6.13401 3 3 6.13401 3 10C3 13.866 6.13401 17 10 17Z" fill="#15d228"/></g><path d="M 758.33 379.17 A 31.6 31.6 0 0 1  789.9300000000001 347.57 L 758.33 379.17 A 31.6 31.6 0 0 0 789.9300000000001 347.57" fill="#aae6b0"/><g transform="translate(789.93,347.57) scale(1.58) rotate(0)"><path fill-rule="evenodd" clip-rule="evenodd" d="M10 20C15.5228 20 20 15.5228 20 10C20 4.47715 15.5228 0 10 0C4.47715 0 0 4.47715 0 10C0 15.5228 4.47715 20 10 20ZM10 17C13.866 17 17 13.866 17 10C17 6.13401 13.866 3 10 3C6.13401 3 3 6.13401 3 10C3 13.866 6.13401 17 10 17Z" fill="#ddeddf"/></g><path d="M 821.52 379.16 A 63.19 63.19 0 0 1  884.71 315.97 L 821.52 379.16 A 63.19 63.19 0 0 0 884.71 315.97" fill="#dc4fce"/><rect x="63.1942" y="379.1652" width="63.1942" height="63.1942" fill="#f0f0f0"/><g transform="translate(94.79,379.17) scale(1.58) rotate(0)"><path fill-rule="evenodd" clip-rule="evenodd" d="M10 20C15.5228 20 20 15.5228 20 10C20 4.47715 15.5228 0 10 0C4.47715 0 0 4.47715 0 10C0 15.5228 4.47715 20 10 20ZM10 17C13.866 17 17 13.866 17 10C17 6.13401 13.866 3 10 3C6.13401 3 3 6.13401 3 10C3 13.866 6.13401 17 10 17Z" fill="#e594dd"/></g><path d="M 63.19 410.76 A 31.6 31.6 0 0 1  94.78999999999999 442.36 L 63.19 410.76 A 31.6 31.6 0 0 0 94.78999999999999 442.36" fill="#e69ddf"/><path d="M 94.79 442.36 A 31.6 31.6 0 0 1  126.39000000000001 410.76 L 94.79 442.36 A 31.6 31.6 0 0 0 126.39000000000001 410.76" fill="#e9b8e4"/><path d="M 126.39 379.17 A 63.19 63.19 0 0 1  189.57999999999998 442.36 L 126.39 379.17 A 63.19 63.19 0 0 0 189.57999999999998 442.36" fill="#e173d6"/><path d="M 189.58 442.36 A 63.19 63.19 0 0 1  252.77 379.17 L 189.58 442.36 A 63.19 63.19 0 0 0 252.77 379.17" fill="#d934c9"/><g transform="translate(315.97,379.17) scale(3.1595) rotate(0)"><path fill-rule="evenodd" clip-rule="evenodd" d="M10 20C15.5228 20 20 15.5228 20 10C20 4.47715 15.5228 0 10 0C4.47715 0 0 4.47715 0 10C0 15.5228 4.47715 20 10 20ZM10 17C13.866 17 17 13.866 17 10C17 6.13401 13.866 3 10 3C6.13401 3 3 6.13401 3 10C3 13.866 6.13401 17 10 17Z" fill="#edd9eb"/></g><g transform="translate(442.36,379.17) scale(3.1595) rotate(0)"><path fill-rule="evenodd" clip-rule="evenodd" d="M10 20C15.5228 20 20 15.5228 20 10C20 4.47715 15.5228 0 10 0C4.47715 0 0 4.47715 0 10C0 15.5228 4.47715 20 10 20ZM10 17C13.866 17 17 13.866 17 10C17 6.13401 13.866 3 10 3C6.13401 3 3 6.13401 3 10C3 13.866 6.13401 17 10 17Z" fill="#bae8bf"/></g><path d="M 568.75 379.17 A 63.19 63.19 0 0 1  631.94 442.36 L 568.75 379.17 A 63.19 63.19 0 0 0 631.94 442.36" fill="#a7e6ad"/><rect x="631.942" y="379.1652" width="63.1942" height="63.1942" fill="#f0f0f0"/><g transform="translate(663.54,410.76) scale(1.58) rotate(0)"><path fill-rule="evenodd" clip-rule="evenodd" d="M10 20C15.5228 20 20 15.5228 20 10C20 4.47715 15.5228 0 10 0C4.47715 0 0 4.47715 0 10C0 15.5228 4.47715 20 10 20ZM10 17C13.866 17 17 13.866 17 10C17 6.13401 13.866 3 10 3C6.13401 3 3 6.13401 3 10C3 13.866 6.13401 17 10 17Z" fill="#da38c9"/></g><path d="M 758.33 379.17 A 63.19 63.19 0 0 1  821.52 442.36 L 758.33 379.17 A 63.19 63.19 0 0 0 821.52 442.36" fill="#5cdc69"/><rect x="0" y="442.3594" width="63.1942" height="63.1942" fill="#f0f0f0"/><path d="M 0 442.36 A 31.6 31.6 0 0 1  31.6 473.96000000000004 L 0 442.36 A 31.6 31.6 0 0 0 31.6 473.96000000000004" fill="#e06bd4"/><g transform="translate(31.6,442.36) scale(1.58) rotate(0)"><path fill-rule="evenodd" clip-rule="evenodd" d="M10 20C15.5228 20 20 15.5228 20 10C20 4.47715 15.5228 0 10 0C4.47715 0 0 4.47715 0 10C0 15.5228 4.47715 20 10 20ZM10 17C13.866 17 17 13.866 17 10C17 6.13401 13.866 3 10 3C6.13401 3 3 6.13401 3 10C3 13.866 6.13401 17 10 17Z" fill="#e7a7e1"/></g><path d="M 0 505.56 A 31.6 31.6 0 0 1  31.6 473.96 L 0 505.56 A 31.6 31.6 0 0 0 31.6 473.96" fill="#6add76"/><path d="M 31.6 505.56 A 31.6 31.6 0 0 1  63.2 473.96 L 31.6 505.56 A 31.6 31.6 0 0 0 63.2 473.96" fill="#89e293"/><path d="M 63.19 505.55 A 63.19 63.19 0 0 1  126.38 442.36 L 63.19 505.55 A 63.19 63.19 0 0 0 126.38 442.36" fill="#ebc6e7"/><g transform="translate(189.58,442.36) scale(3.1595) rotate(0)"><path fill-rule="evenodd" clip-rule="evenodd" d="M10 20C15.5228 20 20 15.5228 20 10C20 4.47715 15.5228 0 10 0C4.47715 0 0 4.47715 0 10C0 15.5228 4.47715 20 10 20ZM10 17C13.866 17 17 13.866 17 10C17 6.13401 13.866 3 10 3C6.13401 3 3 6.13401 3 10C3 13.866 6.13401 17 10 17Z" fill="#1ad22d"/></g><path d="M 252.78 442.36 A 63.19 63.19 0 0 1  315.97 505.55 L 252.78 442.36 A 63.19 63.19 0 0 0 315.97 505.55" fill="#e9b6e4"/><g transform="translate(315.97,442.36) scale(3.1595) rotate(0)"><path fill-rule="evenodd" clip-rule="evenodd" d="M10 20C15.5228 20 20 15.5228 20 10C20 4.47715 15.5228 0 10 0C4.47715 0 0 4.47715 0 10C0 15.5228 4.47715 20 10 20ZM10 17C13.866 17 17 13.866 17 10C17 6.13401 13.866 3 10 3C6.13401 3 3 6.13401 3 10C3 13.866 6.13401 17 10 17Z" fill="#e491dc"/></g><path d="M 379.17 505.55 A 63.19 63.19 0 0 1  442.36 442.36 L 379.17 505.55 A 63.19 63.19 0 0 0 442.36 442.36" fill="#16d22a"/><rect x="505.5536" y="442.3594" width="63.1942" height="63.1942" fill="#f0f0f0"/><g transform="translate(505.55,442.36) scale(1.58) rotate(0)"><path fill-rule="evenodd" clip-rule="evenodd" d="M10 20C15.5228 20 20 15.5228 20 10C20 4.47715 15.5228 0 10 0C4.47715 0 0 4.47715 0 10C0 15.5228 4.47715 20 10 20ZM10 17C13.866 17 17 13.866 17 10C17 6.13401 13.866 3 10 3C6.13401 3 3 6.13401 3 10C3 13.866 6.13401 17 10 17Z" fill="#82e18c"/></g><g transform="translate(537.15,442.36) scale(1.58) rotate(0)"><path fill-rule="evenodd" clip-rule="evenodd" d="M10 20C15.5228 20 20 15.5228 20 10C20 4.47715 15.5228 0 10 0C4.47715 0 0 4.47715 0 10C0 15.5228 4.47715 20 10 20ZM10 17C13.866 17 17 13.866 17 10C17 6.13401 13.866 3 10 3C6.13401 3 3 6.13401 3 10C3 13.866 6.13401 17 10 17Z" fill="#a9e6b0"/></g><g transform="translate(505.55,473.96) scale(1.58) rotate(0)"><path fill-rule="evenodd" clip-rule="evenodd" d="M10 20C15.5228 20 20 15.5228 20 10C20 4.47715 15.5228 0 10 0C4.47715 0 0 4.47715 0 10C0 15.5228 4.47715 20 10 20ZM10 17C13.866 17 17 13.866 17 10C17 6.13401 13.866 3 10 3C6.13401 3 3 6.13401 3 10C3 13.866 6.13401 17 10 17Z" fill="#e7a3e0"/></g><path d="M 568.75 505.55 A 63.19 63.19 0 0 1  631.94 442.36 L 568.75 505.55 A 63.19 63.19 0 0 0 631.94 442.36" fill="#da3ecb"/><rect x="631.942" y="442.3594" width="63.1942" height="63.1942" fill="#f0f0f0"/><path d="M 631.94 473.96000000000004 A 31.6 31.6 0 0 1  663.5400000000001 442.36 L 631.94 473.96000000000004 A 31.6 31.6 0 0 0 663.5400000000001 442.36" fill="#07d01c"/><g transform="translate(663.54,442.36) scale(1.58) rotate(0)"><path fill-rule="evenodd" clip-rule="evenodd" d="M10 20C15.5228 20 20 15.5228 20 10C20 4.47715 15.5228 0 10 0C4.47715 0 0 4.47715 0 10C0 15.5228 4.47715 20 10 20ZM10 17C13.866 17 17 13.866 17 10C17 6.13401 13.866 3 10 3C6.13401 3 3 6.13401 3 10C3 13.866 6.13401 17 10 17Z" fill="#eccde9"/></g><g transform="translate(631.94,473.96) scale(1.58) rotate(0)"><path fill-rule="evenodd" clip-rule="evenodd" d="M10 20C15.5228 20 20 15.5228 20 10C20 4.47715 15.5228 0 10 0C4.47715 0 0 4.47715 0 10C0 15.5228 4.47715 20 10 20ZM10 17C13.866 17 17 13.866 17 10C17 6.13401 13.866 3 10 3C6.13401 3 3 6.13401 3 10C3 13.866 6.13401 17 10 17Z" fill="#b8e8bd"/></g><rect x="695.1362" y="442.3594" width="63.1942" height="63.1942" fill="#f0f0f0"/><path d="M 695.14 473.96000000000004 A 31.6 31.6 0 0 1  726.74 442.36 L 695.14 473.96000000000004 A 31.6 31.6 0 0 0 726.74 442.36" fill="#2fd540"/><g transform="translate(726.73,442.36) scale(1.58) rotate(0)"><path fill-rule="evenodd" clip-rule="evenodd" d="M10 20C15.5228 20 20 15.5228 20 10C20 4.47715 15.5228 0 10 0C4.47715 0 0 4.47715 0 10C0 15.5228 4.47715 20 10 20ZM10 17C13.866 17 17 13.866 17 10C17 6.13401 13.866 3 10 3C6.13401 3 3 6.13401 3 10C3 13.866 6.13401 17 10 17Z" fill="#e06bd4"/></g><path d="M 695.14 505.56 A 31.6 31.6 0 0 1  726.74 473.96 L 695.14 505.56 A 31.6 31.6 0 0 0 726.74 473.96" fill="#7be085"/><g transform="translate(726.73,473.96) scale(1.58) rotate(0)"><path fill-rule="evenodd" clip-rule="evenodd" d="M10 20C15.5228 20 20 15.5228 20 10C20 4.47715 15.5228 0 10 0C4.47715 0 0 4.47715 0 10C0 15.5228 4.47715 20 10 20ZM10 17C13.866 17 17 13.866 17 10C17 6.13401 13.866 3 10 3C6.13401 3 3 6.13401 3 10C3 13.866 6.13401 17 10 17Z" fill="#7fe089"/></g><g transform="translate(758.33,442.36) scale(3.1595) rotate(0)"><path fill-rule="evenodd" clip-rule="evenodd" d="M10 20C15.5228 20 20 15.5228 20 10C20 4.47715 15.5228 0 10 0C4.47715 0 0 4.47715 0 10C0 15.5228 4.47715 20 10 20ZM10 17C13.866 17 17 13.866 17 10C17 6.13401 13.866 3 10 3C6.13401 3 3 6.13401 3 10C3 13.866 6.13401 17 10 17Z" fill="#db43cc"/></g><g transform="translate(821.52,442.36) scale(3.1595) rotate(0)"><path fill-rule="evenodd" clip-rule="evenodd" d="M10 20C15.5228 20 20 15.5228 20 10C20 4.47715 15.5228 0 10 0C4.47715 0 0 4.47715 0 10C0 15.5228 4.47715 20 10 20ZM10 17C13.866 17 17 13.866 17 10C17 6.13401 13.866 3 10 3C6.13401 3 3 6.13401 3 10C3 13.866 6.13401 17 10 17Z" fill="#70de7b"/></g><rect x="63.1942" y="505.5536" width="63.1942" height="63.1942" fill="#f0f0f0"/><path d="M 94.79 537.15 A 31.6 31.6 0 0 1  126.39000000000001 505.55 L 94.79 537.15 A 31.6 31.6 0 0 0 126.39000000000001 505.55" fill="#52da60"/><path d="M 94.79 568.75 A 31.6 31.6 0 0 1  126.39000000000001 537.15 L 94.79 568.75 A 31.6 31.6 0 0 0 126.39000000000001 537.15" fill="#e178d7"/><g transform="translate(189.58,505.55) scale(3.1595) rotate(0)"><path fill-rule="evenodd" clip-rule="evenodd" d="M10 20C15.5228 20 20 15.5228 20 10C20 4.47715 15.5228 0 10 0C4.47715 0 0 4.47715 0 10C0 15.5228 4.47715 20 10 20ZM10 17C13.866 17 17 13.866 17 10C17 6.13401 13.866 3 10 3C6.13401 3 3 6.13401 3 10C3 13.866 6.13401 17 10 17Z" fill="#87e291"/></g><g transform="translate(252.78,505.55) scale(3.1595) rotate(0)"><path fill-rule="evenodd" clip-rule="evenodd" d="M10 20C15.5228 20 20 15.5228 20 10C20 4.47715 15.5228 0 10 0C4.47715 0 0 4.47715 0 10C0 15.5228 4.47715 20 10 20ZM10 17C13.866 17 17 13.866 17 10C17 6.13401 13.866 3 10 3C6.13401 3 3 6.13401 3 10C3 13.866 6.13401 17 10 17Z" fill="#edd9eb"/></g><g transform="translate(379.17,505.55) scale(3.1595) rotate(0)"><path fill-rule="evenodd" clip-rule="evenodd" d="M10 20C15.5228 20 20 15.5228 20 10C20 4.47715 15.5228 0 10 0C4.47715 0 0 4.47715 0 10C0 15.5228 4.47715 20 10 20ZM10 17C13.866 17 17 13.866 17 10C17 6.13401 13.866 3 10 3C6.13401 3 3 6.13401 3 10C3 13.866 6.13401 17 10 17Z" fill="#c5eac8"/></g><path d="M 631.94 505.55 A 63.19 63.19 0 0 1  695.1300000000001 568.74 L 631.94 505.55 A 63.19 63.19 0 0 0 695.1300000000001 568.74" fill="#e490dc"/><g transform="translate(695.14,505.55) scale(3.1595) rotate(0)"><path fill-rule="evenodd" clip-rule="evenodd" d="M10 20C15.5228 20 20 15.5228 20 10C20 4.47715 15.5228 0 10 0C4.47715 0 0 4.47715 0 10C0 15.5228 4.47715 20 10 20ZM10 17C13.866 17 17 13.866 17 10C17 6.13401 13.866 3 10 3C6.13401 3 3 6.13401 3 10C3 13.866 6.13401 17 10 17Z" fill="#8ce295"/></g><rect x="758.3304" y="505.5536" width="63.1942" height="63.1942" fill="#f0f0f0"/><g transform="translate(789.93,505.55) scale(1.58) rotate(0)"><path fill-rule="evenodd" clip-rule="evenodd" d="M10 20C15.5228 20 20 15.5228 20 10C20 4.47715 15.5228 0 10 0C4.47715 0 0 4.47715 0 10C0 15.5228 4.47715 20 10 20ZM10 17C13.866 17 17 13.866 17 10C17 6.13401 13.866 3 10 3C6.13401 3 3 6.13401 3 10C3 13.866 6.13401 17 10 17Z" fill="#a9e6af"/></g><path d="M 789.93 568.75 A 31.6 31.6 0 0 1  821.53 537.15 L 789.93 568.75 A 31.6 31.6 0 0 0 821.53 537.15" fill="#e48adb"/><g transform="translate(821.52,505.55) scale(3.1595) rotate(0)"><path fill-rule="evenodd" clip-rule="evenodd" d="M10 20C15.5228 20 20 15.5228 20 10C20 4.47715 15.5228 0 10 0C4.47715 0 0 4.47715 0 10C0 15.5228 4.47715 20 10 20ZM10 17C13.866 17 17 13.866 17 10C17 6.13401 13.866 3 10 3C6.13401 3 3 6.13401 3 10C3 13.866 6.13401 17 10 17Z" fill="#2cd53d"/></g><rect x="0" y="568.7478" width="63.1942" height="63.1942" fill="#f0f0f0"/><path d="M 31.6 568.75 A 31.6 31.6 0 0 1  63.2 600.35 L 31.6 568.75 A 31.6 31.6 0 0 0 63.2 600.35" fill="#d9eddb"/><path d="M 0 600.34 A 31.6 31.6 0 0 1  31.6 631.94 L 0 600.34 A 31.6 31.6 0 0 0 31.6 631.94" fill="#edd4ea"/><g transform="translate(31.6,600.34) scale(1.58) rotate(0)"><path fill-rule="evenodd" clip-rule="evenodd" d="M10 20C15.5228 20 20 15.5228 20 10C20 4.47715 15.5228 0 10 0C4.47715 0 0 4.47715 0 10C0 15.5228 4.47715 20 10 20ZM10 17C13.866 17 17 13.866 17 10C17 6.13401 13.866 3 10 3C6.13401 3 3 6.13401 3 10C3 13.866 6.13401 17 10 17Z" fill="#d726c6"/></g><g transform="translate(63.19,568.75) scale(3.1595) rotate(0)"><path fill-rule="evenodd" clip-rule="evenodd" d="M10 20C15.5228 20 20 15.5228 20 10C20 4.47715 15.5228 0 10 0C4.47715 0 0 4.47715 0 10C0 15.5228 4.47715 20 10 20ZM10 17C13.866 17 17 13.866 17 10C17 6.13401 13.866 3 10 3C6.13401 3 3 6.13401 3 10C3 13.866 6.13401 17 10 17Z" fill="#27d439"/></g><path d="M 189.58 631.94 A 63.19 63.19 0 0 1  252.77 568.75 L 189.58 631.94 A 63.19 63.19 0 0 0 252.77 568.75" fill="#d724c5"/><path d="M 252.78 568.75 A 63.19 63.19 0 0 1  315.97 631.94 L 252.78 568.75 A 63.19 63.19 0 0 0 315.97 631.94" fill="#eee3ed"/><g transform="translate(315.97,568.75) scale(3.1595) rotate(0)"><path fill-rule="evenodd" clip-rule="evenodd" d="M10 20C15.5228 20 20 15.5228 20 10C20 4.47715 15.5228 0 10 0C4.47715 0 0 4.47715 0 10C0 15.5228 4.47715 20 10 20ZM10 17C13.866 17 17 13.866 17 10C17 6.13401 13.866 3 10 3C6.13401 3 3 6.13401 3 10C3 13.866 6.13401 17 10 17Z" fill="#ecd1ea"/></g><path d="M 379.17 631.94 A 63.19 63.19 0 0 1  442.36 568.75 L 379.17 631.94 A 63.19 63.19 0 0 0 442.36 568.75" fill="#e178d7"/><path d="M 442.36 631.94 A 63.19 63.19 0 0 1  505.55 568.75 L 442.36 631.94 A 63.19 63.19 0 0 0 505.55 568.75" fill="#cbebce"/><g transform="translate(505.55,568.75) scale(3.1595) rotate(0)"><path fill-rule="evenodd" clip-rule="evenodd" d="M10 20C15.5228 20 20 15.5228 20 10C20 4.47715 15.5228 0 10 0C4.47715 0 0 4.47715 0 10C0 15.5228 4.47715 20 10 20ZM10 17C13.866 17 17 13.866 17 10C17 6.13401 13.866 3 10 3C6.13401 3 3 6.13401 3 10C3 13.866 6.13401 17 10 17Z" fill="#e8b1e3"/></g><rect x="631.942" y="568.7478" width="63.1942" height="63.1942" fill="#f0f0f0"/><g transform="translate(631.94,568.75) scale(1.58) rotate(0)"><path fill-rule="evenodd" clip-rule="evenodd" d="M10 20C15.5228 20 20 15.5228 20 10C20 4.47715 15.5228 0 10 0C4.47715 0 0 4.47715 0 10C0 15.5228 4.47715 20 10 20ZM10 17C13.866 17 17 13.866 17 10C17 6.13401 13.866 3 10 3C6.13401 3 3 6.13401 3 10C3 13.866 6.13401 17 10 17Z" fill="#24d436"/></g><path d="M 631.94 600.34 A 31.6 31.6 0 0 1  663.5400000000001 631.94 L 631.94 600.34 A 31.6 31.6 0 0 0 663.5400000000001 631.94" fill="#d829c6"/><path d="M 695.14 631.94 A 63.19 63.19 0 0 1  758.3299999999999 568.75 L 695.14 631.94 A 63.19 63.19 0 0 0 758.3299999999999 568.75" fill="#20d332"/><path d="M 821.52 631.94 A 63.19 63.19 0 0 1  884.71 568.75 L 821.52 631.94 A 63.19 63.19 0 0 0 884.71 568.75" fill="#2fd540"/></g></svg>